#!OML:ASF H:\ManfredETheater\Project 1\Capture day 1\Session 1\subject.ASF
:FULLY-SPECIFIED
:DEGREES
278
root -2.15337 16.3801 -39.9482 190.988 -1.02325 -176.653
lowerback 24.8038 -0.398719 6.81037
upperback 1.65652 1.12921 4.87592
thorax -11.9977 -0.0427716 1.30412
lowerneck -13.7621 -3.66205 -3.29951
upperneck 1.76516 -4.10441 -0.0924988
head 3.06542 -1.98469 0.271757
rclavicle 3.26007e-014 1.43125e-013
rhumerus -23.6343 -5.73447 -80.4027
rradius 56.9182
rwrist -0.274657
rhand -24.7337 -10.5499
rfingers 7.12502
rthumb 1.76875 -40.5224
lclavicle 3.26007e-014 1.43125e-013
lhumerus -42.4769 -3.68234 85.8464
lradius 63.2653
lwrist -11.505
lhand -27.5296 -2.92747
lfingers 7.12502
lthumb -0.931606 27.0502
rfemur -40.2015 -12.2457 8.35156
rtibia 49.3284
rfoot -14.7765 -7.47568
rtoes -43.5096
lfemur -37.5079 5.36689 2.04595
ltibia 62.0354
lfoot -26.1418 -0.860852
ltoes -5.37603
279
root -2.1819 16.4229 -40.0759 191.382 -0.820864 -176.769
lowerback 24.5348 -0.249918 6.50432
upperback 1.56231 1.24902 4.77264
thorax -11.9632 0.0421885 1.31421
lowerneck -13.7652 -3.70347 -3.27628
upperneck 1.73689 -4.16739 -0.0238389
head 3.05839 -2.01232 0.285926
rclavicle 5.56597e-015 3.97569e-014
rhumerus -24.436 -4.49673 -80.5541
rradius 58.1661
rwrist -0.171633
rhand -24.7061 -10.3489
rfingers 7.12502
rthumb 1.79539 -40.3211
lclavicle 5.56597e-015 3.97569e-014
lhumerus -42.6673 -4.46302 86.4764
lradius 64.1083
lwrist -11.4319
lhand -27.3369 -3.20321
lfingers 7.12502
lthumb -0.745433 26.7752
rfemur -39.7814 -12.2907 8.1401
rtibia 48.6588
rfoot -15.1111 -7.4934
rtoes -43.6949
lfemur -37.468 5.4705 1.63144
ltibia 62.7188
lfoot -26.0529 -2.00768
ltoes -6.12167
280
root -2.21305 16.4603 -40.2048 191.706 -0.639675 -176.837
lowerback 24.2887 -0.112935 6.2438
upperback 1.48511 1.36314 4.67625
thorax -11.9205 0.120274 1.30954
lowerneck -13.7395 -3.74558 -3.24054
upperneck 1.72622 -4.23601 0.0403836
head 3.05166 -2.04385 0.296324
rclavicle -2.3059e-014 -3.81667e-014
rhumerus -25.2747 -3.29773 -80.7049
rradius 59.4152
rwrist -0.0497045
rhand -24.7305 -10.1186
rfingers 7.12502
rthumb 1.7719 -40.091
lclavicle -2.3059e-014 -3.81667e-014
lhumerus -42.8885 -5.19683 87.0757
lradius 65.0459
lwrist -11.0982
lhand -27.1159 -3.27492
lfingers 7.12502
lthumb -0.53199 26.7042
rfemur -39.3027 -12.2072 7.92989
rtibia 48.0505
rfoot -15.4342 -7.58238
rtoes -43.8559
lfemur -37.4611 5.61033 1.24988
ltibia 63.6508
lfoot -25.9609 -3.66198
ltoes -7.18292
281
root -2.24642 16.4913 -40.3351 191.962 -0.497602 -176.83
lowerback 24.065 0.00346576 6.05374
upperback 1.42125 1.46694 4.59988
thorax -11.8732 0.187749 1.29244
lowerneck -13.6919 -3.78158 -3.18041
upperneck 1.74488 -4.30203 0.0831527
head 3.04969 -2.076 0.295664
rclavicle -1.59028e-015 -1.59028e-014
rhumerus -26.1429 -2.15893 -80.8509
rradius 60.6452
rwrist 0.0723652
rhand -24.785 -9.82986
rfingers 7.12502
rthumb 1.71919 -39.8027
lclavicle -1.59028e-015 -1.59028e-014
lhumerus -43.1377 -5.87352 87.6404
lradius 66.0647
lwrist -10.5721
lhand -26.8484 -3.17616
lfingers 7.12502
lthumb -0.273627 26.8034
rfemur -38.7701 -11.9953 7.76052
rtibia 47.5195
rfoot -15.7248 -7.78889
rtoes -43.9472
lfemur -37.4766 5.78306 0.935965
ltibia 64.7868
lfoot -25.8475 -5.82475
ltoes -8.47953
282
root -2.28208 16.5161 -40.4684 192.145 -0.406137 -176.745
lowerback 23.8449 0.0908138 5.94548
upperback 1.38138 1.54825 4.54441
thorax -11.7986 0.238512 1.26071
lowerneck -13.6327 -3.80567 -3.09993
upperneck 1.79138 -4.35694 0.113461
head 3.05405 -2.10403 0.288062
rclavicle 1.51076e-014 1.27222e-014
rhumerus -27.0196 -1.10691 -80.9941
rradius 61.8322
rwrist 0.174479
rhand -24.8458 -9.46311
rfingers 7.12502
rthumb 1.66047 -39.4364
lclavicle 1.51076e-014 1.27222e-014
lhumerus -43.3963 -6.47938 88.1596
lradius 67.1524
lwrist -9.93195
lhand -26.5507 -2.97135
lfingers 7.12502
lthumb 0.0139065 27.0084
rfemur -38.173 -11.6735 7.64221
rtibia 47.0786
rfoot -15.9771 -8.12759
rtoes -43.9184
lfemur -37.4708 5.96422 0.691558
ltibia 66.0502
lfoot -25.6843 -8.41262
ltoes -9.93871
283
root -2.31906 16.5343 -40.6037 192.266 -0.365247 -176.562
lowerback 23.6316 -0.707948 5.55266
upperback 1.43582 1.82801 4.50125
thorax -11.6853 0.995124 1.21467
lowerneck -13.559 -3.81981 -3.01157
upperneck 1.85695 -4.40225 0.149143
head 3.06206 -2.12783 0.281567
rclavicle -1.11319e-014 2.38542e-014
rhumerus -27.892 -0.169513 -81.1285
rradius 62.9571
rwrist 0.244833
rhand -24.8885 -9.00277
rfingers 7.12502
rthumb 1.61922 -38.9764
lclavicle -1.11319e-014 2.38542e-014
lhumerus -43.6432 -7.02886 88.6288
lradius 68.2729
lwrist -9.24063
lhand -26.2685 -2.77438
lfingers 7.12502
lthumb 0.286466 27.2052
rfemur -37.5422 -11.2244 7.60961
rtibia 46.7444
rfoot -16.1748 -8.62231
rtoes -43.7357
lfemur -37.4255 6.15474 0.542495
ltibia 67.3501
lfoot -25.3999 -11.2866
ltoes -11.415
284
root -2.35708 16.5461 -40.7418 192.329 -0.375145 -176.319
lowerback 23.4168 -0.669648 5.60007
upperback 1.43362 1.86437 4.49165
thorax -11.5673 1.00922 1.16501
lowerneck -13.4573 -3.82143 -2.90264
upperneck 1.92824 -4.43616 0.180453
head 3.0658 -2.14653 0.271291
rclavicle 3.97569e-015 2.78299e-014
rhumerus -28.7646 0.626237 -81.2531
rradius 64.0138
rwrist 0.273623
rhand -24.8927 -8.47437
rfingers 7.12502
rthumb 1.61516 -38.448
lclavicle 3.97569e-015 2.78299e-014
lhumerus -43.8746 -7.51532 89.0417
lradius 69.412
lwrist -8.56225
lhand -26.0095 -2.62696
lfingers 7.12502
lthumb 0.536537 27.3521
rfemur -36.8837 -10.6689 7.63109
rtibia 46.5286
rfoot -16.3188 -9.26988
rtoes -43.388
lfemur -37.3037 6.32406 0.445905
ltibia 68.5836
lfoot -24.9352 -14.2447
ltoes -12.7376
285
root -2.39549 16.5514 -40.8824 192.349 -0.425847 -176.04
lowerback 23.1835 -0.658568 5.67461
upperback 1.45396 1.87344 4.48945
thorax -11.4133 1.01218 1.11678
lowerneck -13.3351 -3.81359 -2.79051
upperneck 1.99541 -4.4606 0.23371
head 3.06457 -2.15982 0.268726
rclavicle 2.3059e-014 1.07344e-013
rhumerus -29.623 1.24899 -81.3694
rradius 64.9904
rwrist 0.254364
rhand -24.8569 -7.91527
rfingers 7.12502
rthumb 1.64979 -37.8886
lclavicle 2.3059e-014 1.07344e-013
lhumerus -44.0613 -7.95126 89.3921
lradius 70.5491
lwrist -7.93601
lhand -25.7909 -2.57456
lfingers 7.12502
lthumb 0.747699 27.4039
rfemur -36.2231 -10.0147 7.68649
rtibia 46.4423
rfoot -16.4033 -10.0673
rtoes -42.8437
lfemur -37.0894 6.45978 0.368026
ltibia 69.6602
lfoot -24.2233 -17.0457
ltoes -13.56
286
root -2.43369 16.5504 -41.0252 192.337 -0.503723 -175.769
lowerback 22.9488 0.189786 6.09222
upperback 1.40517 1.64614 4.49877
thorax -11.2704 0.293743 1.08189
lowerneck -13.1902 -3.79909 -2.6782
upperneck 2.07107 -4.47946 0.311014
head 3.06255 -2.16993 0.274699
rclavicle -8.74653e-015 -2.06736e-014
rhumerus -30.4967 1.67534 -81.4712
rradius 65.8899
rwrist 0.196129
rhand -24.7803 -7.38901
rfingers 7.12502
rthumb 1.72375 -37.3618
lclavicle -8.74653e-015 -2.06736e-014
lhumerus -44.2208 -8.35305 89.6878
lradius 71.6723
lwrist -7.4119
lhand -25.6484 -2.62846
lfingers 7.12502
lthumb 0.885289 27.3495
rfemur -35.5845 -9.26968 7.73672
rtibia 46.4927
rfoot -16.4286 -10.9967
rtoes -42.0611
lfemur -36.7636 6.54497 0.264885
ltibia 70.5136
lfoot -23.3909 -19.3493
ltoes -13.8664
287
root -2.47134 16.5435 -41.17 192.307 -0.604876 -175.53
lowerback 22.7028 0.172997 6.10975
upperback 1.43143 1.60534 4.47854
thorax -11.1047 0.278955 1.05881
lowerneck -13.0224 -3.78384 -2.58231
upperneck 2.14753 -4.49867 0.431738
head 3.05822 -2.17892 0.298104
rclavicle -1.19271e-014 -5.88403e-014
rhumerus -31.3855 1.89345 -81.5586
rradius 66.7087
rwrist 0.0884581
rhand -24.6894 -6.96369
rfingers 7.12502
rthumb 1.8115 -36.9358
lclavicle -1.19271e-014 -5.88403e-014
lhumerus -44.3337 -8.73774 89.9306
lradius 72.7696
lwrist -7.00641
lhand -25.6029 -2.79027
lfingers 7.12502
lthumb 0.929232 27.1875
rfemur -34.9883 -8.45461 7.76316
rtibia 46.6859
rfoot -16.3838 -12.0341
rtoes -41.0149
lfemur -36.3219 6.55342 0.123041
ltibia 71.1165
lfoot -22.5537 -21.023
ltoes -13.6793
288
root -2.50789 16.5308 -41.3159 192.274 -0.724852 -175.336
lowerback 22.455 0.148144 6.07619
upperback 1.44655 1.54446 4.43779
thorax -10.9523 0.25854 1.04776
lowerneck -12.833 -3.77492 -2.51725
upperneck 2.23487 -4.52678 0.613135
head 3.05639 -2.19072 0.34636
rclavicle 6.36111e-015 1.27222e-014
rhumerus -32.307 1.90359 -81.6315
rradius 67.4393
rwrist -0.0922813
rhand -24.6271 -6.67373
rfingers 7.12502
rthumb 1.87176 -36.6453
lclavicle 6.36111e-015 1.27222e-014
lhumerus -44.4047 -9.12278 90.1247
lradius 73.8399
lwrist -6.73014
lhand -25.6515 -3.02258
lfingers 7.12502
lthumb 0.88229 26.9553
rfemur -34.4645 -7.58757 7.76028
rtibia 47.0307
rfoot -16.2599 -13.1654
rtoes -39.7068
lfemur -35.7811 6.48243 -0.0585077
ltibia 71.4782
lfoot -21.894 -21.989
ltoes -13.2824
289
root -2.54318 16.5126 -41.4628 192.244 -0.861815 -175.21
lowerback 22.2087 0.117824 5.97743
upperback 1.45068 1.46436 4.37253
thorax -10.815 0.233559 1.05193
lowerneck -12.6551 -3.77665 -2.49669
upperneck 2.35168 -4.56627 0.856374
head 3.07048 -2.20645 0.421328
rclavicle -1.35174e-014 -6.75868e-014
rhumerus -33.2631 1.71308 -81.6808
rradius 68.0876
rwrist -0.367944
rhand -24.6264 -6.54848
rfingers 7.12502
rthumb 1.87244 -36.52
lclavicle -1.35174e-014 -6.75868e-014
lhumerus -44.4216 -9.51785 90.2811
lradius 74.8872
lwrist -6.56715
lhand -25.7855 -3.29643
lfingers 7.12502
lthumb 0.752885 26.682
rfemur -34.0325 -6.70586 7.71407
rtibia 47.5444
rfoot -16.0595 -14.3839
rtoes -38.1849
lfemur -35.1521 6.31202 -0.282831
ltibia 71.6329
lfoot -21.5348 -22.326
ltoes -12.7378
290
root -2.577 16.4892 -41.6102 192.225 -1.02239 -175.162
lowerback 21.9602 0.081073 5.81143
upperback 1.44437 1.36337 4.27761
thorax -10.6898 0.203299 1.06708
lowerneck -12.482 -3.7921 -2.51075
upperneck 2.48189 -4.62223 1.15521
head 3.09342 -2.22838 0.519295
rclavicle -2.70347e-014 -8.18993e-014
rhumerus -34.25 1.34597 -81.7055
rradius 68.6454
rwrist -0.753933
rhand -24.7248 -6.59876
rfingers 7.12502
rthumb 1.77733 -36.5711
lclavicle -2.70347e-014 -8.18993e-014
lhumerus -44.3713 -9.9351 90.3989
lradius 75.9137
lwrist -6.48721
lhand -25.9883 -3.59288
lfingers 7.12502
lthumb 0.557048 26.3861
rfemur -33.7136 -5.85705 7.6248
rtibia 48.251
rfoot -15.7937 -15.695
rtoes -36.54
lfemur -34.4617 6.03149 -0.546351
ltibia 71.6274
lfoot -21.5701 -22.1766
ltoes -12.4034
